<svg xmlns="http://www.w3.org/2000/svg" xmlns:xlink="http://www.w3.org/1999/xlink" width="160" height="160" viewBox="0 0 160 160">
  <defs>
    <filter id="FAB-Background" x="0" y="0" width="160" height="160" filterUnits="userSpaceOnUse">
      <feOffset input="SourceAlpha"/>
      <feGaussianBlur stdDeviation="10" result="blur"/>
      <feFlood flood-color="#ff0560"/>
      <feComposite operator="in" in2="blur"/>
      <feComposite in="SourceGraphic"/>
    </filter>
  </defs>
  <g id="FAB-Background-2" data-name="FAB-Background" transform="translate(30 30)">
    <g transform="matrix(1, 0, 0, 1, -30, -30)" filter="url(#FAB-Background)">
      <g id="FAB-Background-3" data-name="FAB-Background" transform="translate(30 30)" fill="#d81b60">
        <path d="M 50 95 C 43.92283630371094 95 38.03010940551758 93.81089019775391 32.48550796508789 91.46572875976562 C 27.12752723693848 89.19949340820312 22.31452751159668 85.95414733886719 18.18020057678223 81.81980133056641 C 14.04585456848145 77.68547058105469 10.80050945281982 72.87247467041016 8.534273147583008 67.51448822021484 C 6.189109325408936 61.96989059448242 5 56.07716369628906 5 50 C 5 43.92283630371094 6.189109325408936 38.03010940551758 8.534273147583008 32.48550796508789 C 10.80050945281982 27.12752723693848 14.04585456848145 22.31452751159668 18.18020057678223 18.18020057678223 C 22.31452751159668 14.04585456848145 27.12752723693848 10.80050945281982 32.48550796508789 8.534273147583008 C 38.03010940551758 6.189109325408936 43.92283630371094 5 50 5 C 56.07716369628906 5 61.96989059448242 6.189109325408936 67.51448822021484 8.534273147583008 C 72.87247467041016 10.80050945281982 77.68547058105469 14.04585456848145 81.81980133056641 18.18020057678223 C 85.95414733886719 22.31452751159668 89.19949340820312 27.12752723693848 91.46572875976562 32.48550796508789 C 93.81089019775391 38.03010940551758 95 43.92283630371094 95 50 C 95 56.07716369628906 93.81089019775391 61.96989059448242 91.46572875976562 67.51448822021484 C 89.19949340820312 72.87247467041016 85.95414733886719 77.68547058105469 81.81980133056641 81.81980133056641 C 77.68547058105469 85.95414733886719 72.87247467041016 89.19949340820312 67.51448822021484 91.46572875976562 C 61.96989059448242 93.81089019775391 56.07716369628906 95 50 95 Z" stroke="none"/>
        <path d="M 50 10 C 27.94393157958984 10 10 27.94393157958984 10 50 C 10 72.05606842041016 27.94393157958984 90 50 90 C 72.05606842041016 90 90 72.05606842041016 90 50 C 90 27.94393157958984 72.05606842041016 10 50 10 M 50 0 C 77.61422729492188 0 100 22.38577270507812 100 50 C 100 77.61422729492188 77.61422729492188 100 50 100 C 22.38577270507812 100 0 77.61422729492188 0 50 C 0 22.38577270507812 22.38577270507812 0 50 0 Z" stroke="none" fill="#fff"/>
      </g>
    </g>
  </g>
</svg>
